<svg width="175" height="36" xmlns="http://www.w3.org/2000/svg" viewBox="0 0 196.01 30">
    <defs>
        <style>.cls-1{fill:#171717;}.cls-2{font-size:29.18px;fill:#fff;font-family:ComicSansMS, Comic Sans
            MS;}.cls-3{fill:#8c61ff;stroke:#8c61ff;stroke-miterlimit:10;stroke-width:0.5px;}
        </style>
    </defs>
    <text class="cls-2" transform="translate(-1 24.91)">flash cards</text>
    <path class="cls-3"
          d="M179,1.2a6,6,0,0,0-6.43,1.93A6.07,6.07,0,0,0,171.42,3a5.93,5.93,0,0,0-5.72,4.26,5.94,5.94,0,0,0-3.4,5.39.75.75,0,0,0,1.49,0,4.46,4.46,0,0,1,2.82-4.16.78.78,0,0,0,.45-.53,4.45,4.45,0,0,1,4.36-3.46,4.72,4.72,0,0,1,1.22.17.74.74,0,0,0,.82-.3,4.5,4.5,0,0,1,3.72-2,4.31,4.31,0,0,1,1.34.2.75.75,0,0,0,.94-.49A.76.76,0,0,0,179,1.2Z"/>
    <path class="cls-3"
          d="M170.11,22.91c-3.48,0-6.32-2.25-6.32-5a4.14,4.14,0,0,1,.64-2.17,6.58,6.58,0,0,1,5.68-2.84.75.75,0,1,0,0-1.49,8.08,8.08,0,0,0-7,3.55,5.66,5.66,0,0,0-.85,2.95c0,3.59,3.5,6.5,7.81,6.5a.75.75,0,1,0,0-1.49Z"/>
    <path class="cls-3"
          d="M190.21,5.43a6.84,6.84,0,0,0-6-3.45,6.94,6.94,0,0,0-3.44.91,6.47,6.47,0,0,0-3.32,5.59c0,.29-.71.82-1.87.82a.75.75,0,0,0,0,1.5,4,4,0,0,0,2.61-.86,4.07,4.07,0,0,0,2.62.86.75.75,0,0,0,0-1.5c-1.16,0-1.87-.53-1.87-.82a4.91,4.91,0,0,1,2.57-4.29,5.46,5.46,0,0,1,2.7-.72A5.32,5.32,0,0,1,189,6.39a.77.77,0,0,0,.49.39,5.53,5.53,0,0,1,4.19,5.36c0,.23,0,.45,0,.66a.74.74,0,0,0,.65.83h.09a.74.74,0,0,0,.74-.66,5.75,5.75,0,0,0,.05-.84A7,7,0,0,0,190.21,5.43Z"/>
    <path class="cls-3"
          d="M179.79,13a3.88,3.88,0,0,0-3.88,3.88.75.75,0,1,0,1.49,0,2.39,2.39,0,0,1,2.39-2.39.75.75,0,1,0,0-1.49Z"/>
    <path class="cls-3"
          d="M185,16.11A2.84,2.84,0,0,0,182.19,19a5.16,5.16,0,0,1-5.28,5,5.38,5.38,0,0,1-3.55-1.32A4.91,4.91,0,0,1,171.64,19a.75.75,0,1,0-1.49,0,6.42,6.42,0,0,0,2.22,4.82,6.94,6.94,0,0,0,4.54,1.68,6.64,6.64,0,0,0,6.77-6.5A1.34,1.34,0,0,1,185,17.6a.75.75,0,0,0,0-1.49Z"/>
    <path class="cls-3"
          d="M194.15,18.42a7,7,0,0,0-7-7,.75.75,0,1,0,0,1.49,5.54,5.54,0,0,1,5.53,5.53c0,3.21-2.11,5.54-5,5.54,0,0-3.68.07-5.49,1a.76.76,0,0,0-.41.67,25.82,25.82,0,0,0,1.52,5.87c.49.86,1.27.86,2.83.86.37,0,3.64,0,4.43-1.33a1.14,1.14,0,0,0,.07-1.14l-.94-2.3a.75.75,0,0,0-1.39.57l.9,2.16a7,7,0,0,1-3.07.54,7.15,7.15,0,0,1-1.52-.09,30.85,30.85,0,0,1-1.29-4.66,17.48,17.48,0,0,1,4.36-.63C191.41,25.45,194.15,22.5,194.15,18.42Z"/>
</svg>