<svg xmlns="http://www.w3.org/2000/svg" viewBox="0 0 35.75 33.63">
    <defs>
        <style>.cls-1{fill:#8c61ff;stroke:#8c61ff;stroke-miterlimit:10;stroke-width:0.5px;}</style>
    </defs>
    <path class="cls-1"
          d="M18.39,1.54A6,6,0,0,0,12,3.47a6.07,6.07,0,0,0-1.12-.11A6,6,0,0,0,5.12,7.61,6,6,0,0,0,1.72,13a.75.75,0,0,0,1.5,0A4.46,4.46,0,0,1,6,8.84a.76.76,0,0,0,.45-.52,4.46,4.46,0,0,1,4.36-3.47A4.29,4.29,0,0,1,12.06,5a.76.76,0,0,0,.83-.3,4.48,4.48,0,0,1,3.71-2A4.32,4.32,0,0,1,17.94,3a.76.76,0,0,0,.94-.49A.75.75,0,0,0,18.39,1.54Z"/>
    <path class="cls-1"
          d="M9.53,23.25c-3.48,0-6.31-2.25-6.31-5a4.13,4.13,0,0,1,.63-2.17,6.58,6.58,0,0,1,5.68-2.84.75.75,0,0,0,0-1.5,8.08,8.08,0,0,0-7,3.56,5.66,5.66,0,0,0-.85,2.95c0,3.58,3.51,6.5,7.81,6.5a.75.75,0,1,0,0-1.49Z"/>
    <path class="cls-1"
          d="M29.63,5.76a6.85,6.85,0,0,0-6-3.45,7,7,0,0,0-3.44.91,6.49,6.49,0,0,0-3.32,5.6c0,.29-.71.82-1.87.82a.75.75,0,0,0,0,1.5,4,4,0,0,0,2.61-.87,4,4,0,0,0,2.62.87.75.75,0,0,0,0-1.5c-1.16,0-1.87-.53-1.87-.82A4.93,4.93,0,0,1,21,4.52a5.45,5.45,0,0,1,2.7-.71,5.3,5.3,0,0,1,4.78,2.91.75.75,0,0,0,.49.4,5.52,5.52,0,0,1,4.19,5.36,4.87,4.87,0,0,1,0,.66.74.74,0,0,0,.65.83h.09a.76.76,0,0,0,.75-.66,7.87,7.87,0,0,0,0-.84A7,7,0,0,0,29.63,5.76Z"/>
    <path class="cls-1"
          d="M19.21,13.3a3.89,3.89,0,0,0-3.88,3.89.75.75,0,1,0,1.49,0,2.4,2.4,0,0,1,2.39-2.39.75.75,0,0,0,0-1.5Z"/>
    <path class="cls-1"
          d="M24.45,16.44a2.84,2.84,0,0,0-2.84,2.84,5.16,5.16,0,0,1-5.27,5A5.37,5.37,0,0,1,12.78,23a4.92,4.92,0,0,1-1.71-3.7.75.75,0,0,0-1.5,0,6.41,6.41,0,0,0,2.23,4.83,6.9,6.9,0,0,0,4.54,1.68,6.64,6.64,0,0,0,6.76-6.51,1.35,1.35,0,0,1,1.35-1.34.75.75,0,0,0,0-1.5Z"/>
    <path class="cls-1"
          d="M33.57,18.76a7.05,7.05,0,0,0-7-7,.75.75,0,0,0,0,1.5,5.48,5.48,0,0,1,5.16,3.55,5.43,5.43,0,0,1,.37,2c0,3.2-2.1,5.53-5,5.53,0,0-3.68.07-5.49,1a.74.74,0,0,0-.41.67,25.82,25.82,0,0,0,1.52,5.87c.49.86,1.27.86,2.83.86.37,0,3.64,0,4.44-1.33A1.18,1.18,0,0,0,30,30.19l-.94-2.29a.75.75,0,1,0-1.38.57l.89,2.15a7,7,0,0,1-3.07.55A7.2,7.2,0,0,1,24,31.08a31.2,31.2,0,0,1-1.29-4.66,17.54,17.54,0,0,1,4.36-.63C30.83,25.79,33.57,22.83,33.57,18.76Z"/>
</svg>